<svg width="45" height="42" viewBox="0 0 45 42" fill="none" xmlns="http://www.w3.org/2000/svg">
<path d="M22.5 11.4994C23.9643 5.2496 29.4947 2.05839 41.5357 2.00001C41.7282 1.99923 41.9189 2.03964 42.0969 2.11893C42.2749 2.19822 42.4366 2.31481 42.5727 2.46198C42.7088 2.60915 42.8167 2.784 42.89 2.97644C42.9633 3.16888 43.0007 3.37511 43 3.58325V32.0815C43 32.5014 42.8457 32.9041 42.5711 33.201C42.2965 33.4979 41.9241 33.6647 41.5357 33.6647C29.8214 33.6647 25.2959 36.2187 22.5 39.9977M22.5 11.4994C21.0357 5.2496 15.5053 2.05839 3.4643 2.00001C3.2718 1.99923 3.08106 2.03964 2.90308 2.11893C2.7251 2.19822 2.56339 2.31481 2.42727 2.46198C2.29115 2.60915 2.18332 2.784 2.10999 2.97644C2.03666 3.16888 1.99928 3.37511 2.00001 3.58325V31.8905C2.00001 32.8682 2.5601 33.6647 3.4643 33.6647C15.1786 33.6647 19.7206 36.2375 22.5 39.9977M22.5 11.4994V39.9977" stroke="#529977" stroke-width="4" stroke-linecap="round" stroke-linejoin="round"/>
</svg>
