<svg width="45" height="43" viewBox="0 0 45 43" fill="none" xmlns="http://www.w3.org/2000/svg">
<path d="M22.5 12.1659C23.9643 5.94307 29.4947 2.76566 41.5357 2.70753C41.7282 2.70675 41.9189 2.74699 42.0969 2.82593C42.2749 2.90488 42.4366 3.02096 42.5727 3.1675C42.7088 3.31404 42.8167 3.48813 42.89 3.67974C42.9633 3.87135 43.0007 4.07669 43 4.28392V32.6589C43 33.077 42.8457 33.478 42.5711 33.7736C42.2965 34.0692 41.9241 34.2353 41.5357 34.2353C29.8214 34.2353 25.2959 36.7782 22.5 40.5409M22.5 12.1659C21.0357 5.94307 15.5053 2.76566 3.4643 2.70753C3.2718 2.70675 3.08106 2.74699 2.90308 2.82593C2.7251 2.90488 2.56339 3.02096 2.42727 3.1675C2.29115 3.31404 2.18332 3.48813 2.10999 3.67974C2.03666 3.87135 1.99928 4.07669 2.00001 4.28392V32.4688C2.00001 33.4422 2.5601 34.2353 3.4643 34.2353C15.1786 34.2353 19.7206 36.7969 22.5 40.5409M22.5 12.1659V40.5409" stroke="#529977" stroke-width="4" stroke-linecap="round" stroke-linejoin="round"/>
</svg>
