<svg width="42" height="46" viewBox="0 0 42 46" fill="none" xmlns="http://www.w3.org/2000/svg">
<path d="M21 0.293457C32.5983 0.293457 42 10.4562 42 22.9935C42 35.5307 32.5983 45.6935 21 45.6935C9.4017 45.6935 0 35.5307 0 22.9935C0 10.4562 9.4017 0.293457 21 0.293457ZM21 4.83346C16.8205 4.83591 12.7919 6.52231 9.70092 9.56331C6.60998 12.6043 4.67866 16.7816 4.28414 21.2792C3.88961 25.7769 5.06021 30.2721 7.56733 33.8869C10.0745 37.5016 13.7381 39.9764 17.8427 40.828C21.9473 41.6795 26.1981 40.8466 29.7651 38.4919C33.3321 36.1373 35.959 32.4299 37.1329 28.0939C38.3068 23.7579 37.9433 19.1046 36.1134 15.0427C34.2836 10.9809 31.1187 7.80216 27.237 6.12736C27.4222 7.50724 27.211 8.91532 26.6321 10.1613C26.0532 11.4073 25.1344 12.4312 23.9999 13.0947C22.8654 13.7581 21.5698 14.0291 20.2882 13.8711C19.0066 13.713 17.8007 13.1336 16.8336 12.211C16.4319 11.8293 16.1801 11.2964 16.1295 10.7209C16.0788 10.1455 16.2332 9.57081 16.5611 9.11416C16.889 8.65751 17.3657 8.35328 17.894 8.26352C18.4223 8.17377 18.9623 8.30526 19.404 8.63117L19.6119 8.80596C19.8668 9.04892 20.1724 9.2214 20.5025 9.30859C20.8326 9.39577 21.1773 9.39506 21.5071 9.30652C21.8369 9.21797 22.1419 9.04423 22.3959 8.80021C22.6499 8.5562 22.8454 8.24919 22.9655 7.90556C23.0855 7.56192 23.1267 7.19192 23.0853 6.82732C23.044 6.46272 22.9214 6.11441 22.7281 5.81229C22.5348 5.51017 22.2766 5.26326 21.9756 5.09277C21.6746 4.92228 21.3398 4.8333 21 4.83346ZM26.544 30.3301C26.9716 30.7155 27.2401 31.2687 27.2905 31.868C27.3409 32.4674 27.1691 33.0638 26.8128 33.5263C25.4016 35.3581 23.3604 36.6135 21 36.6135C18.6396 36.6135 16.5984 35.3581 15.1872 33.5263C14.8464 33.062 14.6871 32.4722 14.7433 31.8827C14.7995 31.2932 15.0667 30.7508 15.4879 30.3714C15.909 29.9921 16.4507 29.8058 16.9973 29.8523C17.5438 29.8989 18.0518 30.1746 18.4128 30.6207C19.1667 31.5968 20.0886 32.0735 21 32.0735C21.9114 32.0735 22.8333 31.5968 23.5872 30.6207C23.9437 30.1584 24.4555 29.8682 25.01 29.8137C25.5644 29.7592 26.1162 29.945 26.544 30.3301ZM13.65 18.4535C14.4854 18.4535 15.2866 18.8122 15.8774 19.4508C16.4681 20.0893 16.8 20.9554 16.8 21.8585C16.8 22.7615 16.4681 23.6276 15.8774 24.2662C15.2866 24.9047 14.4854 25.2635 13.65 25.2635C12.8146 25.2635 12.0134 24.9047 11.4226 24.2662C10.8319 23.6276 10.5 22.7615 10.5 21.8585C10.5 20.9554 10.8319 20.0893 11.4226 19.4508C12.0134 18.8122 12.8146 18.4535 13.65 18.4535ZM28.35 18.4535C29.1854 18.4535 29.9866 18.8122 30.5774 19.4508C31.1681 20.0893 31.5 20.9554 31.5 21.8585C31.5 22.7615 31.1681 23.6276 30.5774 24.2662C29.9866 24.9047 29.1854 25.2635 28.35 25.2635C27.5146 25.2635 26.7134 24.9047 26.1226 24.2662C25.5319 23.6276 25.2 22.7615 25.2 21.8585C25.2 20.9554 25.5319 20.0893 26.1226 19.4508C26.7134 18.8122 27.5146 18.4535 28.35 18.4535Z" fill="#FFCC00"/>
</svg>
