<svg width="46" height="46" viewBox="0 0 46 46" fill="none" xmlns="http://www.w3.org/2000/svg">
<path d="M23 0C35.7029 0 46 10.2971 46 23C46 35.7029 35.7029 46 23 46C10.2971 46 0 35.7029 0 23C0 10.2971 10.2971 0 23 0ZM23 4.6C18.4224 4.60249 14.0101 6.31117 10.6248 9.39237C7.2395 12.4736 5.12425 16.706 4.69215 21.2631C4.26005 25.8203 5.54214 30.3748 8.28803 34.0374C11.0339 37.6999 15.0464 40.2074 19.542 41.0702C24.0375 41.933 28.6932 41.0891 32.5999 38.7033C36.5066 36.3175 39.3837 32.5612 40.6694 28.1679C41.955 23.7745 41.5569 19.0597 39.5528 14.9442C37.5487 10.8287 34.0824 7.60794 29.831 5.911C30.0338 7.30912 29.8026 8.73581 29.1685 9.99829C28.5345 11.2608 27.5282 12.2982 26.2856 12.9704C25.043 13.6426 23.624 13.9172 22.2204 13.7571C20.8167 13.5969 19.496 13.0098 18.4368 12.075C17.9969 11.6883 17.7211 11.1484 17.6656 10.5653C17.6101 9.98223 17.7792 9.39997 18.1383 8.93728C18.4975 8.47459 19.0196 8.16634 19.5982 8.0754C20.1768 7.98446 20.7683 8.11768 21.252 8.4479L21.4797 8.625C21.7588 8.87118 22.0935 9.04594 22.4551 9.13427C22.8166 9.22261 23.1942 9.22189 23.5554 9.13217C23.9167 9.04246 24.2507 8.86642 24.5289 8.61918C24.8071 8.37194 25.0211 8.06088 25.1526 7.7127C25.2841 7.36453 25.3292 6.98964 25.2839 6.62022C25.2387 6.25079 25.1044 5.89788 24.8927 5.59177C24.681 5.28565 24.3982 5.03549 24.0685 4.86274C23.7388 4.69 23.3722 4.59984 23 4.6ZM29.072 30.4336C29.5403 30.8241 29.8344 31.3846 29.8896 31.9919C29.9448 32.5991 29.7566 33.2034 29.3664 33.672C27.8208 35.5281 25.5852 36.8 23 36.8C20.4148 36.8 18.1792 35.5281 16.6336 33.672C16.2604 33.2016 16.0859 32.604 16.1474 32.0067C16.209 31.4094 16.5016 30.8599 16.9629 30.4755C17.4242 30.0911 18.0175 29.9023 18.6161 29.9495C19.2146 29.9967 19.771 30.2761 20.1664 30.728C20.9921 31.717 22.0018 32.2 23 32.2C23.9982 32.2 25.0079 31.717 25.8336 30.728C26.2241 30.2597 26.7846 29.9656 27.3919 29.9104C27.9991 29.8552 28.6035 30.0434 29.072 30.4336ZM14.95 18.4C15.865 18.4 16.7425 18.7635 17.3895 19.4105C18.0365 20.0575 18.4 20.935 18.4 21.85C18.4 22.765 18.0365 23.6425 17.3895 24.2895C16.7425 24.9365 15.865 25.3 14.95 25.3C14.035 25.3 13.1575 24.9365 12.5105 24.2895C11.8635 23.6425 11.5 22.765 11.5 21.85C11.5 20.935 11.8635 20.0575 12.5105 19.4105C13.1575 18.7635 14.035 18.4 14.95 18.4ZM31.05 18.4C31.965 18.4 32.8425 18.7635 33.4895 19.4105C34.1365 20.0575 34.5 20.935 34.5 21.85C34.5 22.765 34.1365 23.6425 33.4895 24.2895C32.8425 24.9365 31.965 25.3 31.05 25.3C30.135 25.3 29.2575 24.9365 28.6105 24.2895C27.9635 23.6425 27.6 22.765 27.6 21.85C27.6 20.935 27.9635 20.0575 28.6105 19.4105C29.2575 18.7635 30.135 18.4 31.05 18.4Z" fill="#FFCC00"/>
</svg>
