<svg width="42" height="46" viewBox="0 0 42 46" fill="none" xmlns="http://www.w3.org/2000/svg">
<path d="M21 0C32.5983 0 42 10.2069 42 22.7986C42 35.3903 32.5983 45.5972 21 45.5972C9.4017 45.5972 0 35.3903 0 22.7986C0 10.2069 9.4017 0 21 0ZM21 4.55972C16.8205 4.56219 12.7919 6.25591 9.70092 9.31013C6.60998 12.3643 4.67866 16.5597 4.28414 21.077C3.88961 25.5942 5.06021 30.1089 7.56733 33.7393C10.0745 37.3698 13.7381 39.8554 17.8427 40.7106C21.9473 41.5658 26.1981 40.7293 29.7651 38.3644C33.3321 35.9995 35.959 32.2761 37.1329 27.9212C38.3068 23.5664 37.9433 18.8928 36.1134 14.8133C34.2836 10.7338 31.1187 7.54132 27.237 5.85924C27.4222 7.24512 27.211 8.65931 26.6321 9.91074C26.0532 11.1622 25.1344 12.1905 23.9999 12.8568C22.8654 13.5232 21.5698 13.7953 20.2882 13.6366C19.0066 13.4779 17.8007 12.8959 16.8336 11.9693C16.4319 11.586 16.1801 11.0508 16.1295 10.4728C16.0788 9.89482 16.2332 9.31766 16.5611 8.85902C16.889 8.40038 17.3657 8.09483 17.894 8.00469C18.4223 7.91455 18.9623 8.04661 19.404 8.37393L19.6119 8.54948C19.8668 8.7935 20.1724 8.96673 20.5025 9.05429C20.8326 9.14186 21.1773 9.14114 21.5071 9.05221C21.8369 8.96328 22.1419 8.78878 22.3959 8.54371C22.6499 8.29863 22.8454 7.9903 22.9655 7.64517C23.0855 7.30004 23.1267 6.92843 23.0853 6.56225C23.044 6.19606 22.9214 5.84624 22.7281 5.5428C22.5348 5.23937 22.2766 4.99139 21.9756 4.82016C21.6746 4.64893 21.3398 4.55956 21 4.55972ZM26.544 30.1671C26.9716 30.5542 27.2401 31.1098 27.2905 31.7117C27.3409 32.3137 27.1691 32.9127 26.8128 33.3772C25.4016 35.217 23.3604 36.4778 21 36.4778C18.6396 36.4778 16.5984 35.217 15.1872 33.3772C14.8464 32.9109 14.6871 32.3185 14.7433 31.7264C14.7995 31.1344 15.0667 30.5897 15.4879 30.2087C15.909 29.8276 16.4507 29.6405 16.9973 29.6873C17.5438 29.734 18.0518 30.011 18.4128 30.4589C19.1667 31.4393 20.0886 31.9181 21 31.9181C21.9114 31.9181 22.8333 31.4393 23.5872 30.4589C23.9437 29.9947 24.4555 29.7032 25.01 29.6485C25.5644 29.5938 26.1162 29.7803 26.544 30.1671ZM13.65 18.2389C14.4854 18.2389 15.2866 18.5992 15.8774 19.2405C16.4681 19.8819 16.8 20.7517 16.8 21.6587C16.8 22.5657 16.4681 23.4355 15.8774 24.0768C15.2866 24.7182 14.4854 25.0785 13.65 25.0785C12.8146 25.0785 12.0134 24.7182 11.4226 24.0768C10.8319 23.4355 10.5 22.5657 10.5 21.6587C10.5 20.7517 10.8319 19.8819 11.4226 19.2405C12.0134 18.5992 12.8146 18.2389 13.65 18.2389ZM28.35 18.2389C29.1854 18.2389 29.9866 18.5992 30.5774 19.2405C31.1681 19.8819 31.5 20.7517 31.5 21.6587C31.5 22.5657 31.1681 23.4355 30.5774 24.0768C29.9866 24.7182 29.1854 25.0785 28.35 25.0785C27.5146 25.0785 26.7134 24.7182 26.1226 24.0768C25.5319 23.4355 25.2 22.5657 25.2 21.6587C25.2 20.7517 25.5319 19.8819 26.1226 19.2405C26.7134 18.5992 27.5146 18.2389 28.35 18.2389Z" fill="#529977"/>
</svg>
